<svg width="56" height="22" viewBox="0 0 56 22" fill="none" xmlns="http://www.w3.org/2000/svg">
<path d="M51.2813 5.51108H52.6458C52.7349 5.51108 52.8088 5.42927 52.8088 5.32926V2.44744C52.8088 2.34744 52.7349 2.26562 52.6458 2.26562H50.7289C48.5141 2.26562 47.338 3.05957 46.6659 4.74745L42.4985 16.1899C42.2439 16.8717 41.8824 17.1959 41.162 17.1959V2.44744C41.162 2.34744 41.0907 2.26562 41.0016 2.26562H37.9391C37.85 2.26562 37.7787 2.34744 37.7787 2.44744V20.1202C37.7787 20.2959 37.906 20.4384 38.0638 20.4384H41.498C43.7154 20.4384 44.726 19.6444 45.3981 17.9566L49.512 6.65957C49.843 5.85957 50.3165 5.50805 51.2839 5.50805L51.2813 5.51108Z" fill="#D71921"/>
<path d="M13.8452 11.3533C15.0748 10.7805 16.0931 9.49568 16.0931 7.36538C16.0931 4.18962 13.6619 2.26538 10.7317 2.26538H1.67648C1.58738 2.26538 1.51355 2.3472 1.51355 2.4472V5.33205C1.51355 5.43205 1.58738 5.51387 1.67648 5.51387H10.1029C11.4623 5.51387 12.3839 6.44417 12.3839 7.58962C12.3839 8.73508 11.4649 9.66841 10.1029 9.66841H5.09796V7.52599C5.09796 7.42599 5.02414 7.34417 4.93504 7.34417H1.67648C1.58738 7.34417 1.51355 7.42599 1.51355 7.52599V20.2624C1.51355 20.3624 1.58738 20.4411 1.67648 20.4411H10.6019C13.9368 20.4411 16.3273 18.6987 16.3273 15.1442C16.3273 13.3987 15.4082 11.9533 13.8477 11.3533H13.8452ZM10.276 17.2745H5.09796V13.0139H10.2786C11.6736 13.0139 12.6181 13.9684 12.6181 15.1442C12.6181 16.3199 11.6736 17.2745 10.2786 17.2745H10.276Z" fill="#D71921"/>
<path d="M54.4565 20.2323L49.2046 12.7081C49.1893 12.6838 49.1664 12.6899 49.1588 12.7141L47.7459 16.5869C47.7383 16.6111 47.7383 16.6384 47.751 16.6596L50.0472 20.105C50.2102 20.3475 50.3935 20.4384 50.6684 20.4384H54.3699C54.4769 20.4384 54.5227 20.3232 54.459 20.2293L54.4565 20.2323Z" fill="#D71921"/>
<path d="M22.0759 7.34167H19.0083C18.9192 7.34167 18.8479 7.42349 18.8479 7.52349V20.2599C18.8479 20.3599 18.9192 20.4387 19.0083 20.4387H22.0759C22.165 20.4387 22.2389 20.3568 22.2389 20.2599V7.52349C22.2389 7.42349 22.165 7.34167 22.0759 7.34167Z" fill="#D71921"/>
<path d="M34.6931 2.26562H31.628C31.5389 2.26562 31.4676 2.34744 31.4676 2.44744V17.1959C30.7497 17.1959 30.3857 16.8717 30.1311 16.1899L25.9637 4.74745C25.2916 3.05957 24.1155 2.26563 21.9007 2.26563H19.0113C18.9222 2.26563 18.8509 2.34744 18.8509 2.44744V5.3323C18.8509 5.4323 18.9222 5.51411 19.0113 5.51411H21.3457C22.3131 5.51411 22.7866 5.86563 23.1176 6.66563L27.2315 17.9626C27.901 19.6505 28.9142 20.4444 31.1316 20.4444H34.5658C34.7236 20.4444 34.8509 20.302 34.8509 20.1263V2.44744C34.8509 2.34744 34.7796 2.26562 34.6905 2.26562H34.6931Z" fill="#D71921"/>
</svg>
